PathFileType	4	(X/Y/Z)	S01_0014_Gait_markers.trc
DataRate	CameraRate	NumFrames	NumMarkers	Units	OrigDataRate	OrigDataStartFrame	OrigNumFrames
250.000000	250.000000	4	54	mm	250.000000	0	367
Frame#	Time	HEAD_ANT			R_HEAD			L_HEAD			C7			R_BACK			L_BACK			STERNUM			R_ACROMION			R_HUM_PROX			R_HUM_ANT			R_HUM_POST			R_ELBOW_LAT			R_ELBOW_MED			R_FOREARM			R_WIRST_LAT			R_WRITS_MED			R_HAND			L_ACROMION			L_HUM_PROX			L_HUM_ANT			L_HUM_POST			L_ELBOW_LAT			L_ELBOW_MED			L_FOREARM			L_WRIST_LAT			L_WIRST_MED			L_HAND			R_ILIAC			SACRUM			L_ILIAC			R_GTROCH			R_THIGH__1			R_THIGH_2			R_THIGH_3			R_THIGH_4			R_SHANK_1			R_SHANK_2			R_SHANK_3			R_SHANK_4			R_HEEL			R_FOOT_LAT			R_FOOT_MED			L_GTROCH			L_THIGH_1			L_THIGH_2			L_THIGH_3			L_THIGH_4			L_SHANK_1			L_SHANK_2			L_SHANK_3			L_SHANK_4			L_HEEL			L_FOOT_LAT			L_FOOT_MED			
		X1	Y1	Z1	X2	Y2	Z2	X3	Y3	Z3	X4	Y4	Z4	X5	Y5	Z5	X6	Y6	Z6	X7	Y7	Z7	X8	Y8	Z8	X9	Y9	Z9	X10	Y10	Z10	X11	Y11	Z11	X12	Y12	Z12	X13	Y13	Z13	X14	Y14	Z14	X15	Y15	Z15	X16	Y16	Z16	X17	Y17	Z17	X18	Y18	Z18	X19	Y19	Z19	X20	Y20	Z20	X21	Y21	Z21	X22	Y22	Z22	X23	Y23	Z23	X24	Y24	Z24	X25	Y25	Z25	X26	Y26	Z26	X27	Y27	Z27	X28	Y28	Z28	X29	Y29	Z29	X30	Y30	Z30	X31	Y31	Z31	X32	Y32	Z32	X33	Y33	Z33	X34	Y34	Z34	X35	Y35	Z35	X36	Y36	Z36	X37	Y37	Z37	X38	Y38	Z38	X39	Y39	Z39	X40	Y40	Z40	X41	Y41	Z41	X42	Y42	Z42	X43	Y43	Z43	X44	Y44	Z44	X45	Y45	Z45	X46	Y46	Z46	X47	Y47	Z47	X48	Y48	Z48	X49	Y49	Z49	X50	Y50	Z50	X51	Y51	Z51	X52	Y52	Z52	X53	Y53	Z53	X54	Y54	Z54	

1	0	1.444989323616028	1738.569580078125	-316.4035949707027	-58.4539794921875	1691.666259765625	-238.7186584472653	-56.13362121582031	1688.016357421875	-385.9562377929684	-195.4106903076172	1521.785034179688	-316.1455078124997	-279.0710144042969	1327.7119140625	-253.1174621582028	-266.5220642089844	1330.359619140625	-394.1574707031247	-22.09201622009277	1356.32470703125	-300.4000854492185	-131.2964172363281	1472.730224609375	-137.4396820068356	-185.7636871337891	1313.951171875	-49.28328323364229	-129.8207855224609	1225.539916992188	-39.41833496093723	-251.6445159912109	1233.567504882812	-44.58979797363254	-208.9519500732422	1125.579833984375	-32.71115493774389	-219.1393127441406	1121.15673828125	-113.003608703613	-110.0546112060547	942.5526123046875	-17.755697250366	-66.744384765625	877.4976806640625	-55.20259094238262	-137.0760955810547	852.6357421875	-23.04707336425762	-66.52320098876953	791.648681640625	3.879094123840508	-107.4872970581055	1475.232299804688	-477.0042724609372	-120.6962203979492	1311.92333984375	-578.1284790039059	-58.13319396972656	1231.44482421875	-572.1332397460935	-177.0785980224609	1234.807250976563	-609.8348999023435	-115.6590270996094	1131.393188476563	-616.526672363281	-174.3773193359375	1122.654663085938	-564.7570800781248	7.63154935836792	969.1647949218751	-578.8533935546873	42.31312942504883	915.7172851562501	-522.4357299804685	5.442116737365723	885.2935791015626	-586.828918457031	86.34348297119141	839.1380004882814	-561.5396728515623	-141.7682189941406	1073.495239257812	-137.8452453613279	-265.7367248535156	1047.092651367188	-306.7712707519529	-138.4782257080078	1064.946533203125	-480.6871948242185	-176.5357208251953	922.5263671875	-117.1314697265623	-57.10060501098633	654.7374267578125	-133.0185394287108	-7.334871292114258	685.891845703125	-127.4885787963866	26.40095329284668	588.7056884765625	-160.4008026123045	-37.37461853027344	576.0652465820312	-150.9449615478514	-26.10651969909668	360.0045166015626	-145.7115478515624	31.5958423614502	343.6871337890626	-155.264907836914	35.80145263671875	258.6469116210938	-169.3483581542968	-28.63973808288574	259.8034667968751	-164.4911041259765	-37.49409484863281	41.62173461914068	-247.2447357177734	117.4669189453125	32.47074127197269	-150.6900482177734	174.0487518310547	58.69384384155278	-233.5764770507812	-181.8533172607422	953.7747192382814	-480.6796874999998	-139.9582061767578	660.0823974609376	-457.9644470214842	-189.5511627197266	687.6873779296876	-475.4579162597655	-218.2757720947266	593.0797119140626	-444.555938720703	-157.1583862304688	584.0183715820314	-432.5435485839843	-250.9246826171875	325.0831909179689	-421.9810791015624	-311.3195495605469	314.2927551269532	-427.9770507812499	-332.6113586425781	231.7276611328126	-408.6523132324218	-270.8675231933594	226.1931457519532	-395.6513671874999	-416.3083190917969	57.47703170776374	-335.8682861328125	-241.9298706054688	21.13222503662118	-402.475341796875	-206.3084564208984	24.52131080627448	-295.7601623535156	
2	0.004	6.566245079040527	1737.68603515625	-315.9794616699215	-53.28884124755859	1690.75390625	-238.2337646484371	-51.01326370239258	1687.248046875	-385.4302978515621	-190.3224487304688	1520.921142578125	-316.0063476562497	-273.9917602539062	1326.911499023438	-253.0629577636716	-261.402099609375	1329.651245117188	-394.0990295410153	-17.16681098937988	1355.442504882812	-300.1489257812497	-126.2957305908203	1471.626342773438	-137.19221496582	-181.4066467285156	1312.963256835938	-49.70395660400361	-125.1729888916016	1224.574951171875	-39.23941421508762	-247.0543670654297	1232.697265625	-44.67198181152316	-204.3489074707031	1124.64990234375	-32.79423141479467	-214.0497589111328	1120.148559570312	-113.0053100585935	-105.5622863769531	941.5435791015625	-17.87615966796854	-62.06881713867188	876.433837890625	-55.03528213500957	-132.4022216796875	851.6381225585938	-22.94461822509747	-61.98935699462891	790.8001098632812	4.054965972900566	-102.2468109130859	1474.458618164062	-476.7716674804684	-115.2821731567383	1311.187866210938	-577.9573974609372	-52.61032867431641	1230.651123046875	-571.767883300781	-171.3014984130859	1233.929321289063	-609.6860351562498	-109.7373733520508	1130.693359375	-616.501770019531	-168.5641784667969	1121.788818359375	-564.783996582031	13.81460571289062	968.7081909179689	-578.0516357421873	48.50992202758789	915.3568725585939	-521.5507202148435	11.90296268463135	884.8959960937501	-586.0009765624998	92.73203277587891	838.9078369140626	-560.4270019531248	-136.7046051025391	1072.598022460938	-137.6896820068357	-260.5929870605469	1046.226806640625	-306.645080566406	-133.7206726074219	1064.194580078125	-480.8581237792966	-171.5751342773438	921.4926147460938	-117.2065582275389	-52.47015762329102	653.47119140625	-133.2157287597655	-2.82024621963501	684.9427490234375	-127.8149795532225	31.01253128051758	587.5345458984375	-160.4232482910155	-32.32959747314453	575.389892578125	-152.0739593505858	-17.14474296569824	358.6537170410157	-145.6438598632812	40.78945159912109	343.8071899414063	-155.5550384521484	47.0362548828125	258.7832946777344	-169.1725616455078	-17.58164024353027	258.4399414062501	-164.5820007324218	-21.90618515014648	40.39162826538092	-247.4565887451172	133.2704925537109	33.67324066162113	-151.1454620361328	189.2668762207031	60.88314056396489	-233.8867340087891	-177.2290802001953	953.3098754882814	-480.6183471679685	-137.1060485839844	659.6412963867189	-458.1310424804686	-186.7808074951172	687.5575561523439	-475.3690795898436	-216.8670959472656	592.6907348632814	-443.3392944335936	-155.0653076171875	583.5427856445314	-433.0929870605468	-249.8627624511719	325.0684204101564	-421.9490661621093	-310.0494689941406	314.5603027343751	-427.9030761718749	-331.8934020996094	231.9373779296876	-408.8614196777343	-269.9280700683594	226.3927612304688	-394.5597229003906	-416.2467651367188	58.04078674316413	-335.735595703125	-242.0113525390625	21.09584999084482	-402.4371948242188	-206.2776184082031	24.45183181762702	-295.2183837890625	
3	0.008	11.8534107208252	1736.789672851562	-315.5689697265621	-48.07830810546875	1689.718139648438	-237.4816131591793	-45.95523071289062	1686.468627929688	-385.013519287109	-185.1537322998047	1519.968139648438	-315.7887878417965	-268.9779968261719	1326.102172851562	-253.0992736816403	-256.35888671875	1328.8818359375	-393.9735107421872	-11.77502155303955	1354.147827148438	-300.1777648925778	-121.3684463500977	1470.739624023438	-136.9915924072262	-176.3870697021484	1312.05029296875	-49.23704910278291	-120.5158462524414	1223.553833007812	-39.08308029174778	-242.440673828125	1231.766235351562	-44.74281311035129	-199.6720733642578	1123.696166992188	-32.84819793701147	-209.3771057128906	1119.105224609375	-113.2980194091794	-101.020133972168	940.6459350585938	-17.54622268676737	-57.42507934570312	875.6500244140625	-54.71632003784161	-127.4046249389648	850.8834838867188	-23.16073608398419	-57.33244705200195	789.8059692382812	4.262554645538505	-96.67071533203125	1473.626708984375	-476.4057922363278	-109.6375961303711	1310.349609375	-577.6195068359372	-46.94105911254883	1229.890502929688	-571.6063842773435	-165.5124816894531	1233.106689453125	-609.501525878906	-103.712890625	1129.939575195313	-616.2982177734373	-162.3114776611328	1120.539672851563	-564.7707519531248	20.04784774780273	968.2506103515626	-577.3742675781248	54.66691589355469	914.9587402343751	-520.7998046874998	18.26484680175781	884.3754882812501	-585.2645263671873	99.20346069335938	838.6287231445314	-559.3400268554685	-131.4734802246094	1071.652099609375	-137.2914733886716	-255.4136199951172	1045.493774414062	-306.3828124999998	-128.7553100585938	1063.343627929688	-480.9105224609373	-166.8013763427734	920.552734375	-117.3003845214842	-47.88929748535156	652.4561157226562	-133.2079162597655	1.729803323745728	683.6532592773438	-127.4364318847655	35.67880630493164	586.6646728515625	-160.4411468505858	-27.77641105651855	574.2326049804688	-152.0737762451171	-8.178056716918945	357.2484741210938	-145.7486877441405	49.8707389831543	343.6167907714844	-155.7640075683593	57.80105209350586	258.9191894531251	-169.5762329101562	-6.585249900817871	256.7198791503907	-165.1173095703124	-6.295931339263916	39.20898437500006	-247.533447265625	149.3235778808594	35.1185340881348	-151.2470397949219	204.4423675537109	63.40424346923833	-234.3968811035156	-172.4466094970703	952.8347778320314	-480.655090332031	-134.1840972900391	659.2799682617189	-458.4102172851561	-183.7118682861328	687.5969238281251	-475.7438964843748	-213.6051025390625	592.9987792968751	-444.556182861328	-152.7427215576172	583.1953735351564	-433.5345458984374	-249.7135314941406	324.5074768066407	-421.7939758300781	-308.9534912109375	314.8855590820314	-427.9366149902343	-331.0363159179688	232.1807556152345	-408.8417053222656	-269.054443359375	226.6722259521485	-394.5763549804687	-416.0973510742188	58.69217681884773	-335.5642395019531	-242.134033203125	21.09752273559579	-402.4051208496094	-206.2753753662109	24.47343254089362	-295.2811279296875	
4	0.012	17.01678085327148	1736.03271484375	-314.7811584472652	-42.93879318237305	1688.67578125	-236.9430236816403	-40.66714477539062	1685.630981445312	-384.5837097167965	-180.0108184814453	1519.133666992188	-315.6489562988278	-263.8900756835938	1325.324096679688	-252.8997039794919	-251.2304229736328	1328.061767578125	-393.953674316406	-9.471743583679199	1352.451171875	-300.5057678222653	-116.3275299072266	1469.71875	-136.7422790527341	-171.9582214355469	1310.940185546875	-49.6173324584958	-115.8943634033203	1222.546508789062	-39.08552169799778	-237.6249847412109	1230.801391601562	-44.76485824584934	-195.1010131835938	1122.685180664062	-32.92509460449194	-204.4023284912109	1118.105224609375	-113.0484771728513	-96.41512298583984	939.5430297851562	-17.51126670837381	-52.7462158203125	874.6143188476562	-54.51424407958965	-122.7338333129883	849.7850952148438	-23.16705322265606	-52.91604995727539	788.938232421875	4.257102966308769	-91.40871429443359	1472.818237304688	-476.2244262695309	-103.9793472290039	1309.557739257813	-577.3895874023434	-41.07964324951172	1229.182739257813	-571.2482299804685	-159.9299926757812	1232.222045898438	-609.5299072265623	-97.78275299072266	1129.115234375	-616.0382690429685	-156.6257934570312	1119.631958007813	-564.792053222656	26.22728729248047	967.6514892578126	-576.630920410156	61.19489669799805	914.3408813476564	-518.9399414062498	24.70682716369629	883.8468627929689	-584.4081420898435	105.659782409668	838.4308471679689	-558.0989990234373	-126.5999221801758	1070.460205078125	-137.650695800781	-250.3663330078125	1044.7412109375	-306.0697937011716	-123.7903060913086	1062.487915039062	-480.7258300781248	-161.7514343261719	919.5014038085938	-117.5477905273436	-43.42361450195312	651.2748413085938	-133.1637115478514	6.20008659362793	682.6041870117188	-127.418487548828	40.45890045166016	585.626953125	-159.7304229736327	-23.11822891235352	573.0390014648438	-152.5424346923827	0.7393543124198914	356.2155456542969	-145.7199249267577	59.2645149230957	343.3431396484376	-155.8862915039062	68.65110778808594	259.1025695800782	-169.9071960449218	4.531399726867676	255.773193359375	-164.865737915039	9.001241683959961	38.3078117370606	-248.0374450683594	164.7555847167969	36.68308258056644	-151.8197174072266	219.4348754882812	66.11161041259771	-234.8077087402343	-167.7128448486328	952.1776733398439	-480.6223449707029	-131.3363952636719	658.7503662109376	-458.5738220214842	-180.8143005371094	687.4138793945314	-475.7733459472655	-210.6529235839844	593.0194702148439	-444.8648986816405	-149.9346618652344	582.5354614257814	-433.5374450683593	-248.6462860107422	324.6201477050782	-421.9042663574218	-308.0130004882812	315.0802612304689	-428.0046386718749	-330.2961730957031	232.7441864013673	-408.7931213378906	-268.3913269042969	226.8266143798829	-394.6599731445312	-415.9046936035156	59.48958206176765	-335.5233764648438	-242.1895904541016	21.10403060913095	-402.3174133300781	-206.2324829101562	24.50273132324225	-295.3313293457031	
